<?xml version="1.0" encoding="utf-8"?>
<!-- Generator: Adobe Illustrator 19.1.0, SVG Export Plug-In . SVG Version: 6.00 Build 0)  -->
<svg version="1.1" id="Ebene_1" xmlns="http://www.w3.org/2000/svg" xmlns:xlink="http://www.w3.org/1999/xlink" x="0px" y="0px"
	 viewBox="161.8 161.8 75 75" style="enable-background:new 161.8 161.8 75 75;" xml:space="preserve">
<style type="text/css">
	.st0{fill:none;stroke:#1D1D1B;stroke-width:1.1109;stroke-miterlimit:10;}
	.st1{fill:none;stroke:#F6AA00;stroke-width:1.1109;stroke-miterlimit:10;}
	.st2{fill:none;stroke:#BD1622;stroke-width:1.1109;stroke-miterlimit:10;}
	.st3{fill:none;stroke:#E5332A;stroke-width:1.1109;stroke-miterlimit:10;}
	.st4{fill:none;stroke:#009EE2;stroke-width:1.1109;stroke-miterlimit:10;}
	.st5{fill:none;stroke:#99C33A;stroke-width:1.1109;stroke-miterlimit:10;}
	.st6{fill:none;stroke:#99C33A;stroke-width:1.626;stroke-miterlimit:10;}
	.st7{fill:#838383;}
	.st8{fill:#FFFFFF;}
</style>
<g>
	<g>
		<rect x="-0.4" y="421" class="st0" width="399.9" height="399.9"/>
		<rect x="399.5" y="421" class="st0" width="248.7" height="399.9"/>
		<rect x="399.5" y="421" class="st0" width="248.7" height="248.7"/>
		<rect x="497.1" y="669.7" class="st0" width="151.2" height="151.2"/>
		<rect x="399.5" y="723.4" class="st0" width="97.5" height="97.5"/>
		<rect x="399.5" y="669.7" class="st0" width="53.7" height="53.7"/>
		<rect x="453.2" y="669.7" class="st0" width="43.9" height="43.9"/>
		<path class="st1" d="M-0.4,820.9c0-221,178.9-399.9,399.9-399.9"/>
		<path class="st2" d="M648.3,669.7C648.3,532.3,537,421,399.5,421"/>
		<path class="st3" d="M648.3,669.7c0,83.6-67.6,151.2-151.2,151.2"/>
		<path class="st2" d="M399.5,723.4c0,53.9,43.6,97.5,97.5,97.5"/>
		<path class="st2" d="M399.5,723.4c0-29.7,24-53.7,53.7-53.7"/>
		<path class="st2" d="M497.1,713.6c0-24.2-19.6-43.9-43.9-43.9"/>
		<path class="st4" d="M399.2,621c0,110.2-89.4,199.6-199.6,199.6C89.3,820.6,0,731.2,0,621s89.4-199.6,199.6-199.6
			S399.2,510.7,399.2,621z"/>
		<circle class="st4" cx="523.9" cy="545.4" r="124.4"/>
		<circle class="st4" cx="572.7" cy="745.3" r="75.6"/>
		<circle class="st4" cx="448.3" cy="772.2" r="48.8"/>
		<circle class="st4" cx="426.4" cy="696.6" r="26.8"/>
		<circle class="st4" cx="475.1" cy="691.7" r="21.9"/>
		<line class="st5" x1="-0.4" y1="821.4" x2="400" y2="421"/>
		<line class="st5" x1="400" y1="421" x2="647.3" y2="668.3"/>
		<line class="st5" x1="648.3" y1="669.7" x2="499.4" y2="818.7"/>
		<line class="st5" x1="497.1" y1="820.9" x2="400.7" y2="724.6"/>
		<line class="st5" x1="399.5" y1="723.4" x2="453.9" y2="669.1"/>
		<line class="st5" x1="453.9" y1="669.1" x2="497.7" y2="712.9"/>
	</g>
	<line class="st6" x1="399.5" y1="669.7" x2="646.1" y2="423.2"/>
</g>
<g>
	<rect x="161.8" y="161.8" class="st7" width="75" height="75"/>
	<ellipse class="st8" cx="199.2" cy="186.6" rx="17.6" ry="19.9"/>
	<path class="st8" d="M214.3,211.2c-2.4,1.5-8.3,2.5-15.1,2.5c-6.8,0-12.7-1.1-15.1-2.6c-13.5,1.3-17.3,4.1-17.3,4.1
		s-0.2,8,0.2,16.6h63.7c0.7-8.6,0.8-16.4,0.8-16.4S227.9,212.5,214.3,211.2z"/>
</g>
</svg>
